# xmcd
#
# Track frame offsets:
#	150
#	20320
#	35816
#	55250
#	67973
#	86426
#	97320
#	114154
#	135070
#	153751
#	173025
#	191216
#	207649
#	223788
#
# Disc length: 3146 seconds
#
# Revision: 5
# Processed by: cddbd v1.5.1PL0 Copyright (c) Steve Scherf et al.
# Submitted via: MusicWizard 7.0.2
#
DISCID=bf0c480e
DTITLE=Fun Lovin' Criminals - 100% Colombian
DYEAR=1997
DGENRE=Hip-Hop
TTITLE0=Up On The Hill
TTITLE1=Love Unlimited
TTITLE2=The View Belongs To Everyone
TTITLE3=Korean Bodega
TTITLE4=Back On The Block
TTITLE5=10th Street
TTITLE6=Sugar
TTITLE7=Southside
TTITLE8=We Are All Very Worried About You
TTITLE9=All For Self
TTITLE10=All My Time Is Gone
TTITLE11=Big Night Out
TTITLE12=Mini Bar Blues
TTITLE13=Fisty Nuts
EXTD=YEAR: 1997 ID3G: 7
EXTT0=
EXTT1=
EXTT2=
EXTT3=
EXTT4=
EXTT5=
EXTT6=
EXTT7=
EXTT8=
EXTT9=
EXTT10=
EXTT11=
EXTT12=
EXTT13=
PLAYORDER=
